C:\Users\menth\Documents\Programmas\PredSimResults\H0918v3\H0918v3_v1.mot
version=1
nRows=10
nColumns=28
inDegrees=yes
endheader
                time	         pelvis_tilt	           pelvis_tx	           pelvis_ty	       hip_flexion_r	        knee_angle_r	       ankle_angle_r	       hip_flexion_l	        knee_angle_l	       ankle_angle_l	hamstrings_r/activation	bifemsh_r/activation	glut_max_r/activation	iliopsoas_r/activation	rect_fem_r/activation	  vasti_r/activation	gastroc_r/activation	 soleus_r/activation	tib_ant_r/activation	hamstrings_l/activation	bifemsh_l/activation	glut_max_l/activation	iliopsoas_l/activation	rect_fem_l/activation	  vasti_l/activation	gastroc_l/activation	 soleus_l/activation	tib_ant_l/activation	
          0.57392499	         -8.57807434	          0.63131749	          0.90748842	        -12.10010708	         -9.42517852	         -4.72571387	         30.73026607	        -14.22631301	         -3.70954619	          0.04999999	          0.09260970	          0.04999999	          0.52233630	          0.05345813	          0.04999999	          0.56172407	          0.51085533	          0.04999999	          0.07807737	          0.04999999	          0.10137882	          0.04999999	          0.07096076	          0.06932065	          0.21893277	          0.13178479	          0.54681786	
          0.58540349	         -8.44658636	          0.64683492	          0.90626149	        -11.77922373	        -11.91121498	         -5.62846421	         30.11827802	        -14.25803347	         -4.09189613	          0.04999999	          0.07773781	          0.04999999	          0.43845601	          0.04999999	          0.04999999	          0.50076891	          0.47369910	          0.04999999	          0.07356057	          0.04999999	          0.13860913	          0.04999999	          0.05956541	          0.10045384	          0.19333418	          0.11062190	          0.67042092	
          0.59688199	         -8.29039951	          0.66266512	          0.90498267	        -11.21456900	        -14.85781620	         -6.78766459	         29.47816784	        -15.06202571	         -3.98832863	          0.04999999	          0.06525415	          0.04999999	          0.36804579	          0.04999999	          0.04999999	          0.42035206	          0.39762930	          0.04999999	          0.07192537	          0.04999999	          0.19453557	          0.04999999	          0.04999999	          0.08432228	          0.22488067	          0.15705865	          0.61025409	
          0.60836049	         -8.12450363	          0.67862118	          0.90377515	        -10.37523574	        -18.22680199	         -8.36513881	         28.86218355	        -16.25648537	         -3.05648900	          0.06762067	          0.05477520	          0.14568538	          0.30894251	          0.04999999	          0.04999999	          0.35284909	          0.33377531	          0.04999999	          0.08541503	          0.05344483	          0.26081027	          0.04999999	          0.04999999	          0.15556713	          0.23374739	          0.18740472	          0.51225537	
          0.61983899	         -7.96925470	          0.69443598	          0.90294413	         -9.25355316	        -21.90221597	        -10.53680632	         28.32316643	        -17.59224759	         -1.58686299	          0.08072284	          0.04999999	          0.12229024	          0.25933044	          0.04999999	          0.04999999	          0.29618620	          0.28017542	          0.25358268	          0.09944896	          0.04999999	          0.31699140	          0.04999999	          0.04999999	          0.26048630	          0.25438847	          0.23095289	          0.42999395	
          0.63131749	         -7.84165282	          0.70989148	          0.90264088	         -7.87910499	        -25.75696332	        -13.24889669	         27.80144370	        -18.84141195	         -0.22113830	          0.09041449	          0.04999999	          0.10265205	          0.21768541	          0.04999999	          0.04999999	          0.24862262	          0.23518296	          0.35793575	          0.10582284	          0.04999999	          0.34316792	          0.04999999	          0.04999999	          0.34647692	          0.27723962	          0.27834009	          0.36094262	
          0.64279599	         -7.74660011	          0.72490108	          0.90281409	         -6.39814836	        -29.48582740	        -15.49566619	         27.18905006	        -19.79003923	          0.95291178	          0.08779750	          0.07284511	          0.08616749	          0.18272802	          0.04999999	          0.04999999	          0.21285487	          0.19741569	          0.30045601	          0.10938710	          0.04999999	          0.33456133	          0.04999999	          0.04999999	          0.39546140	          0.30016270	          0.32250331	          0.30298002	
          0.65427449	         -7.68198127	          0.73946876	          0.90349678	         -4.94445168	        -32.77120911	        -15.70396445	         26.44035268	        -20.36392423	          1.90914834	          0.10584021	          0.12563644	          0.07233013	          0.15338432	          0.04999999	          0.04999999	          0.17867320	          0.16571335	          0.39246482	          0.11295816	          0.07096076	          0.30059188	          0.04999999	          0.04999999	          0.39627493	          0.32214375	          0.36118718	          0.25432544	
          0.66575299	         -7.64407095	          0.75362796	          0.90476163	         -3.53472799	        -35.51855386	        -15.36408677	         25.57331691	        -20.60348296	          2.62176359	          0.11797468	          0.18009197	          0.06071487	          0.12933168	          0.04999999	          0.04999999	          0.14998065	          0.13910198	          0.40007135	          0.11718683	          0.05956540	          0.26315126	          0.04999999	          0.04999999	          0.37633291	          0.34385456	          0.39509516	          0.21348415	
          0.67723149	         -7.62944412	          0.76741154	          0.90655527	         -2.16527417	        -37.76392094	        -14.73312854	         24.61504168	        -20.56507855	          3.09251454	          0.12019436	          0.22408400	          0.05096487	          0.11810593	          0.04999999	          0.04999999	          0.12589575	          0.11676405	          0.38288889	          0.12188778	          0.04999999	          0.23289226	          0.04999999	          0.04999999	          0.34154158	          0.36435451	          0.42248928	          0.17920142	
